<?xml version="1.0" encoding="UTF-8"?>
<svg id="_레이어_2" data-name="레이어 2" xmlns="http://www.w3.org/2000/svg" viewBox="0 0 498.54 234.38">
  <defs>
    <style>
      .cls-1 {
        fill: #fff;
      }
    </style>
  </defs>
  <g id="_레이어_1-2" data-name="레이어 1">
    <g>
      <path class="cls-1" d="M0,234.38V0H102.34c22.92,0,40.88,5.73,53.91,17.19,13.02,11.46,19.53,30.21,19.53,56.25,0,21.36-6.64,38.8-19.92,52.34-13.28,13.54-31.12,20.31-53.52,20.31H58.59v88.28H0ZM58.59,87.5h43.75c4.69,0,8.33-1.3,10.94-3.91,2.6-2.6,3.91-5.99,3.91-10.16,0-4.69-1.3-8.33-3.91-10.94-2.61-2.6-6.25-3.91-10.94-3.91H58.59v28.91Z"/>
      <path class="cls-1" d="M234.38,88.28v-29.69h43.75c4.69,0,8.33,1.17,10.94,3.52,2.6,2.34,3.91,6.12,3.91,11.33,0,4.69-1.17,8.33-3.52,10.94-2.34,2.61-6.12,3.91-11.33,3.91h-43.75Zm0,87.5v-29.69h43.75c5.21,0,8.98,1.3,11.33,3.91,2.34,2.61,3.52,6.25,3.52,10.94s-1.3,8.33-3.91,10.94c-2.61,2.61-6.25,3.91-10.94,3.91h-43.75Zm117.19,58.59h-73.44c26.04,0,44.79-6.64,56.25-19.92,11.46-13.28,17.19-31.12,17.19-53.52,0-20.83-8.59-35.42-25.78-43.75,17.19-10.42,25.78-25,25.78-43.75,0-25.52-6.38-44.14-19.14-55.86-12.76-11.72-30.86-17.58-54.3-17.58h73.44V234.38Z"/>
      <path class="cls-1" d="M351.56,234.38V0h73.44c29.17,0,53.64,9.64,73.44,28.91l-45.31,43.75c-5.21-9.38-14.58-15.62-28.12-18.75-5.73,0-9.64,1.3-11.72,3.91-2.08,2.61-3.12,6.25-3.12,10.94s10.16,13.8,30.47,27.34c38.54,27.61,57.81,49.22,57.81,64.84,1.04,19.27-5.6,36.2-19.92,50.78-14.33,14.58-32.16,22.14-53.52,22.66h-73.44Z"/>
    </g>
  </g>
</svg>